<svg xmlns="http://www.w3.org/2000/svg" viewBox="0 0 680 300" width="680" height="300">

  <g transform="translate(340, 150)">

    <line x1="-180" y1="-58" x2="-8" y2="-58" stroke="#0A4A2F" stroke-width="0.7" opacity="0.5"/>
    <polygon points="0,-5.5 5,0 0,5.5 -5,0" fill="#0A4A2F" opacity="0.7" transform="translate(-4,-58)"/>
    <polygon points="0,-5.5 5,0 0,5.5 -5,0" fill="#0A4A2F" opacity="0.7" transform="translate(4,-58)"/>
    <line x1="8" y1="-58" x2="180" y2="-58" stroke="#0A4A2F" stroke-width="0.7" opacity="0.5"/>

    <text x="0" y="-36"
      text-anchor="middle" dominant-baseline="central"
      font-family="Georgia, 'Times New Roman', serif"
      font-size="11" fill="#0A4A2F" letter-spacing="7" opacity="0.65">DUBAI  ·  UAE</text>

    <text x="0" y="8"
      text-anchor="middle" dominant-baseline="central"
      font-family="Georgia, 'Times New Roman', serif"
      font-size="62" font-weight="400" fill="#0A4A2F" letter-spacing="14">HIRA</text>

    <line x1="-180" y1="36" x2="-28" y2="36" stroke="#0A4A2F" stroke-width="0.7" opacity="0.45"/>
    <polygon points="0,-4 4,0 0,4 -4,0" fill="#0A4A2F" opacity="0.55" transform="translate(-22,36)"/>
    <polygon points="0,-4 4,0 0,4 -4,0" fill="#0A4A2F" opacity="0.9"  transform="translate(0,36)"/>
    <polygon points="0,-4 4,0 0,4 -4,0" fill="#0A4A2F" opacity="0.55" transform="translate(22,36)"/>
    <line x1="28" y1="36" x2="180" y2="36" stroke="#0A4A2F" stroke-width="0.7" opacity="0.45"/>

    <text x="0" y="60"
      text-anchor="middle" dominant-baseline="central"
      font-family="Georgia, 'Times New Roman', serif"
      font-size="13" fill="#0A4A2F" letter-spacing="10" opacity="0.85">FASHIONS</text>

    <line x1="-180" y1="82" x2="180" y2="82" stroke="#0A4A2F" stroke-width="0.4" opacity="0.25"/>

    <text x="0" y="98"
      text-anchor="middle" dominant-baseline="central"
      font-family="Georgia, 'Times New Roman', serif"
      font-size="9" fill="#0A4A2F" letter-spacing="4" opacity="0.45">FINEST INDIAN WEAR</text>

  </g>
</svg>
